<svg width="24" height="24" viewBox="0 0 24 24" xmlns="http://www.w3.org/2000/svg">
	<path d="M12 22C10.6167 22 9.31667 21.7375 8.1 21.2125C6.88333 20.6875 5.825 19.975 4.925 19.075C4.025 18.175 3.3125 17.1167 2.7875 15.9C2.2625 14.6833 2 13.3833 2 12C2 10.6167 2.2625 9.31667 2.7875 8.1C3.3125 6.88333 4.025 5.825 4.925 4.925C5.825 4.025 6.88333 3.3125 8.1 2.7875C9.31667 2.2625 10.6167 2 12 2C13.3833 2 14.6833 2.2625 15.9 2.7875C17.1167 3.3125 18.175 4.025 19.075 4.925C19.975 5.825 20.6875 6.88333 21.2125 8.1C21.7375 9.31667 22 10.6167 22 12C22 13.3833 21.7375 14.6833 21.2125 15.9C20.6875 17.1167 19.975 18.175 19.075 19.075C18.175 19.975 17.1167 20.6875 15.9 21.2125C14.6833 21.7375 13.3833 22 12 22ZM11 17H13C13.55 17 14.0208 16.8042 14.4125 16.4125C14.8042 16.0208 15 15.55 15 15V13.5C15 13.0833 14.8542 12.7292 14.5625 12.4375C14.2708 12.1458 13.9167 12 13.5 12C13.9167 12 14.2708 11.8542 14.5625 11.5625C14.8542 11.2708 15 10.9167 15 10.5V9C15 8.45 14.8042 7.97917 14.4125 7.5875C14.0208 7.19583 13.55 7 13 7H11C10.45 7 9.97917 7.19583 9.5875 7.5875C9.19583 7.97917 9 8.45 9 9V10.5C9 10.9167 9.14583 11.2708 9.4375 11.5625C9.72917 11.8542 10.0833 12 10.5 12C10.0833 12 9.72917 12.1458 9.4375 12.4375C9.14583 12.7292 9 13.0833 9 13.5V15C9 15.55 9.19583 16.0208 9.5875 16.4125C9.97917 16.8042 10.45 17 11 17ZM11 9H13V11H11V9ZM11 15V13H13V15H11Z" />
</svg>
