<svg width="24" height="24" viewBox="0 0 24 24" xmlns="http://www.w3.org/2000/svg">
	<path d="M13 9L11.3 15.8C11.2167 16.1 11.275 16.375 11.475 16.625C11.675 16.875 11.9333 17 12.25 17C12.4833 17 12.6833 16.9333 12.85 16.8C13.0167 16.6667 13.125 16.4917 13.175 16.275L14.95 9.25C14.9833 9.16667 15 9.09167 15 9.025V8.8C15 8.31667 14.8292 7.89583 14.4875 7.5375C14.1458 7.17917 13.7333 7 13.25 7H10C9.71667 7 9.47917 7.09583 9.2875 7.2875C9.09583 7.47917 9 7.71667 9 8C9 8.28333 9.09583 8.52083 9.2875 8.7125C9.47917 8.90417 9.71667 9 10 9H13ZM12 22C10.6167 22 9.31667 21.7375 8.1 21.2125C6.88333 20.6875 5.825 19.975 4.925 19.075C4.025 18.175 3.3125 17.1167 2.7875 15.9C2.2625 14.6833 2 13.3833 2 12C2 10.6167 2.2625 9.31667 2.7875 8.1C3.3125 6.88333 4.025 5.825 4.925 4.925C5.825 4.025 6.88333 3.3125 8.1 2.7875C9.31667 2.2625 10.6167 2 12 2C13.3833 2 14.6833 2.2625 15.9 2.7875C17.1167 3.3125 18.175 4.025 19.075 4.925C19.975 5.825 20.6875 6.88333 21.2125 8.1C21.7375 9.31667 22 10.6167 22 12C22 13.3833 21.7375 14.6833 21.2125 15.9C20.6875 17.1167 19.975 18.175 19.075 19.075C18.175 19.975 17.1167 20.6875 15.9 21.2125C14.6833 21.7375 13.3833 22 12 22Z" />
</svg>
