<svg width="24" height="24" viewBox="0 0 24 24" xmlns="http://www.w3.org/2000/svg">
	<path d="M13.26 3.00008C8.17 2.86008 4 6.94008 4 12.0001H2.21C1.76 12.0001 1.54 12.5401 1.86 12.8501L4.65 15.6401C4.85 15.8401 5.16 15.8401 5.36 15.6401L8.16 12.8501C8.46 12.5401 8.24 12.0001 7.79 12.0001H6C6 8.11008 9.2 4.94008 13.1 5.00008C16.81 5.05008 19.94 8.18008 20 11.9001C20.06 15.8101 16.9 19.0001 13 19.0001C11.41 19.0001 9.95 18.4701 8.77 17.5701C8.37 17.2701 7.81 17.3001 7.46 17.6601C7.03 18.0901 7.07 18.8001 7.55 19.1601C9.06 20.3101 10.95 21.0001 13 21.0001C18.06 21.0001 22.14 16.8301 22 11.7501C21.87 7.05008 17.95 3.13008 13.26 3.00008ZM15 11.0001V10.0001C15 8.90008 14.1 8.00008 13 8.00008C11.9 8.00008 11 8.90008 11 10.0001V11.0001C10.45 11.0001 10 11.4501 10 12.0001V15.0001C10 15.5501 10.45 16.0001 11 16.0001H15C15.55 16.0001 16 15.5501 16 15.0001V12.0001C16 11.4501 15.55 11.0001 15 11.0001ZM14 11.0001H12V10.0001C12 9.45008 12.45 9.00008 13 9.00008C13.55 9.00008 14 9.45008 14 10.0001V11.0001Z" />
</svg>
